<svg xmlns="http://www.w3.org/2000/svg" width="47" height="36.531" viewBox="0 0 47 36.531"><defs><style>.cls-1{fill:#fff;fill-rule:evenodd}</style></defs><path class="cls-1" d="M1.682.839a.839.839 0 0 0-1.678 0V35.7a.834.834 0 0 0 .839.83h45.306a.831.831 0 1 0 0-1.661H1.682V.839zM6.29 29.813a.846.846 0 0 0 1.187 0l4.122-4.077 9.45-9.349.433-.429 1.424 1.408 2.045 2.023.469.464a.807.807 0 0 0 .389.2.857.857 0 0 0 .8-.2l15.6-15.432v4.138a.839.839 0 0 0 1.678 0V2.251a.834.834 0 0 0-.839-.83h-6.377a.83.83 0 1 0 0 1.66h4.518l-3.023 2.991-12.15 12.02-1.75-1.731-2.187-2.164a.87.87 0 0 0-1.187 0l-1.175 1.163L6.29 28.639a.825.825 0 0 0 0 1.174z"/></svg>