<svg xmlns="http://www.w3.org/2000/svg" viewBox="0 0 73 80"><defs><style>.cls-1{fill:#89ad70;fill-rule:evenodd}</style></defs><path class="cls-1" d="M54.027 58.29q-4.486 0-6.756-2.37t-2.374-6.81a19.116 19.116 0 0 1-6.454 6.86 15.066 15.066 0 0 1-7.777 2.12 11.318 11.318 0 0 1-4.947-1 9.518 9.518 0 0 1-3.466-2.73 11.743 11.743 0 0 1-2.066-4.07 17.83 17.83 0 0 1-.692-5.05 24.933 24.933 0 0 1 6.5-16.55 24.719 24.719 0 0 1 7.831-5.68 24.451 24.451 0 0 1 10.557-2.2 27.283 27.283 0 0 1 5.078.46 18.79 18.79 0 0 1 4.256 1.33l-4.64 17.69a40.893 40.893 0 0 0-.895 4.21 22.56 22.56 0 0 0-.278 3.34 10.044 10.044 0 0 0 .559 3.65 5.576 5.576 0 0 0 1.506 2.21 4.9 4.9 0 0 0 2.167 1.1 11.219 11.219 0 0 0 2.551.28 10.972 10.972 0 0 0 5.558-1.53 15.236 15.236 0 0 0 4.694-4.36 22.755 22.755 0 0 0 3.239-6.86 31.622 31.622 0 0 0 1.2-9.02 32.608 32.608 0 0 0-2.472-13.19 26.22 26.22 0 0 0-6.733-9.35 28.016 28.016 0 0 0-9.923-5.56 38.594 38.594 0 0 0-12.039-1.84 32.845 32.845 0 0 0-13.234 2.71 33.753 33.753 0 0 0-10.961 7.55 36.007 36.007 0 0 0-7.5 11.54 38.031 38.031 0 0 0-2.78 14.71 40.665 40.665 0 0 0 2.882 15.89 32.7 32.7 0 0 0 7.834 11.47A33.167 33.167 0 0 0 26 74.23a41.276 41.276 0 0 0 14.057 2.37 51.32 51.32 0 0 0 13.79-1.74 40.722 40.722 0 0 0 11.351-5.04 1.39 1.39 0 0 1 .869-.26 1.049 1.049 0 0 1 1.02.72l.76 1.88a47.08 47.08 0 0 1-12.568 5.82 53.706 53.706 0 0 1-15.222 2.03 45.361 45.361 0 0 1-15.715-2.67 35.609 35.609 0 0 1-21.217-20.4A44.039 44.039 0 0 1 .012 39.88a41 41 0 0 1 3.011-15.8 39.486 39.486 0 0 1 8.211-12.65 38.091 38.091 0 0 1 12.141-8.39A36.657 36.657 0 0 1 38.213.01a40.759 40.759 0 0 1 13.111 2.11 32.294 32.294 0 0 1 11.09 6.33 30.684 30.684 0 0 1 7.705 10.43A33.866 33.866 0 0 1 73 33.31a32.9 32.9 0 0 1-1.479 10.14 25.184 25.184 0 0 1-4.056 7.88 18.78 18.78 0 0 1-6.044 5.12 15.516 15.516 0 0 1-7.394 1.84zm-22.441-3.57a12.667 12.667 0 0 0 3.8-.61 10.4 10.4 0 0 0 3.775-2.22 17.329 17.329 0 0 0 3.391-4.33 27.42 27.42 0 0 0 2.656-6.96l4.08-15.81a17.439 17.439 0 0 0-2.527-.54 22.571 22.571 0 0 0-3.039-.17 18.5 18.5 0 0 0-8.336 1.86 20.349 20.349 0 0 0-6.376 4.87 22.685 22.685 0 0 0-4.079 6.75 20.814 20.814 0 0 0-1.452 7.58 13.752 13.752 0 0 0 .5 3.79 8.589 8.589 0 0 0 1.533 3.04 7.325 7.325 0 0 0 2.527 2.01 7.857 7.857 0 0 0 3.547.74z"/></svg>