<svg xmlns="http://www.w3.org/2000/svg" viewBox="0 0 48.938 48"><defs><style>.cls-1{fill-rule:evenodd;fill:#fff}</style></defs><path class="cls-1" d="M24.481 47.989a24 24 0 1 1 24.471-24 24.265 24.265 0 0 1-24.471 24zm0-46.531a22.54 22.54 0 1 0 22.988 22.535A22.789 22.789 0 0 0 24.481 1.458zm0 7.876a.736.736 0 0 1-.744-.729V.729a.744.744 0 0 1 1.488 0v7.876a.736.736 0 0 1-.744.729zm-15.7 15.389H.749a.73.73 0 1 1 0-1.459h8.032a.73.73 0 1 1 .004 1.459zm15.7 23.266a.736.736 0 0 1-.744-.729v-7.877a.744.744 0 0 1 1.488 0v7.877a.736.736 0 0 1-.744.729zm23.727-23.266h-8.033a.73.73 0 1 1 0-1.459h8.033a.73.73 0 1 1 0 1.459zM36.523 40.072h-.085a.735.735 0 0 1-.657-.807c.146-1.271.291-4.4-1.466-5.939a8.339 8.339 0 0 0-2.956-1.474 8.838 8.838 0 0 1-3.038-1.512c-1.963-1.7-2.235-3.888-.767-6.162a11.155 11.155 0 0 0 1.73-5.536 4.828 4.828 0 1 0-9.607 0 11.172 11.172 0 0 0 1.728 5.536c1.471 2.274 1.2 4.461-.764 6.162a8.847 8.847 0 0 1-3.04 1.512 8.334 8.334 0 0 0-2.955 1.474c-1.757 1.543-1.612 4.668-1.467 5.939a.744.744 0 0 1-1.479.162c-.17-1.5-.32-5.192 1.952-7.187a9.787 9.787 0 0 1 3.455-1.765 7.651 7.651 0 0 0 2.55-1.23c1.427-1.236 1.584-2.6.492-4.286a12.52 12.52 0 0 1-1.961-6.317 6.309 6.309 0 1 1 12.584 0 12.52 12.52 0 0 1-1.961 6.317c-1.09 1.689-.933 3.05.495 4.286a7.594 7.594 0 0 0 2.548 1.23 9.778 9.778 0 0 1 3.455 1.765c2.272 2 2.122 5.691 1.952 7.187a.74.74 0 0 1-.738.645zM8.561 35.915a.708.708 0 0 1-.129-.01.732.732 0 0 1-.6-.845c.373-2.086 1.022-4.677 2.745-6.208a6.036 6.036 0 0 1 2.333-1.256 4.07 4.07 0 0 0 1.549-.788c1.045-.915 1.121-1.5.348-2.708a10 10 0 0 1-1.527-4.989 5.169 5.169 0 0 1 4.995-5.427 4.7 4.7 0 0 1 2.074.472.724.724 0 0 1 .337.978.754.754 0 0 1-1 .331 3.21 3.21 0 0 0-1.414-.322 3.717 3.717 0 0 0-3.506 3.968 8.583 8.583 0 0 0 1.3 4.214c1.157 1.813.973 3.18-.617 4.572a5.5 5.5 0 0 1-2.059 1.079 4.616 4.616 0 0 0-1.815.956c-1.388 1.235-1.946 3.524-2.28 5.38a.738.738 0 0 1-.734.603zm31.84 0a.739.739 0 0 1-.732-.6c-.332-1.856-.891-4.144-2.279-5.38a4.616 4.616 0 0 0-1.815-.956 5.492 5.492 0 0 1-2.06-1.079c-1.589-1.392-1.773-2.759-.618-4.572a8.585 8.585 0 0 0 1.3-4.214 3.717 3.717 0 0 0-3.506-3.968 3.226 3.226 0 0 0-1.417.322.751.751 0 0 1-1-.332.723.723 0 0 1 .339-.977 4.71 4.71 0 0 1 2.074-.472 5.169 5.169 0 0 1 4.995 5.427 10.013 10.013 0 0 1-1.528 4.989c-.772 1.211-.7 1.792.347 2.708a4.062 4.062 0 0 0 1.551.787 6.053 6.053 0 0 1 2.333 1.257c1.724 1.532 2.373 4.124 2.745 6.208a.732.732 0 0 1-.6.845.694.694 0 0 1-.129.007z"/></svg>