<svg xmlns="http://www.w3.org/2000/svg" width="47.375" height="47.906" viewBox="0 0 47.375 47.906"><defs><style>.cls-1{fill:#fff;fill-rule:evenodd}</style></defs><path class="cls-1" d="M16.95 30.359a.755.755 0 0 1-.531-.214.719.719 0 0 1-.185-.739l2.073-6.364a.735.735 0 0 1 .185-.3L41.619.195a.789.789 0 0 1 1.062 0l4.456 4.345a.719.719 0 0 1 0 1.035L24.01 28.121a.764.764 0 0 1-.3.18l-6.529 2.02a.771.771 0 0 1-.231.038zm2.732-6.7l-1.579 4.848 4.974-1.539 22.468-21.9-3.4-3.311zM42.991 9.374a.755.755 0 0 1-.53-.214l-4.457-4.345a.718.718 0 0 1 0-1.034.765.765 0 0 1 1.062 0l4.456 4.344a.719.719 0 0 1 0 1.035.759.759 0 0 1-.531.21zm-5.793 38.537H.746a.741.741 0 0 1-.751-.731V6.67a.741.741 0 0 1 .751-.732h35.237a.732.732 0 1 1 0 1.463H1.496v39.047h34.952V15.337a.751.751 0 0 1 1.5 0v31.844a.741.741 0 0 1-.75.726z"/></svg>