<svg xmlns="http://www.w3.org/2000/svg" viewBox="0 0 52 35.5"><defs><style>.cls-1{fill:#fff;fill-rule:evenodd}</style></defs><path class="cls-1" d="M47.79 13.83a4.084 4.084 0 0 0-4.15 3.41c-.35.14-.71.29-1.09.47a5.22 5.22 0 0 1-2.23.55c-2.98 0-5.09-3.35-6.59-6.27l-1.85-3.6a11.358 11.358 0 0 0-1.06-1.67 4.568 4.568 0 0 0 .41-1.88 5.252 5.252 0 0 0-10.47 0 4.475 4.475 0 0 0 .6 2.2 10.407 10.407 0 0 0-.92 1.58l-1.51 3.21c-1.32 2.81-3.44 6.55-6.52 6.55a5.112 5.112 0 0 1-2.09-.49l-.83-.37q-.6-.27-1.17-.48a4.112 4.112 0 0 0-4.12-3.21 4.06 4.06 0 0 0-4.21 3.88 3.983 3.983 0 0 0 3.52 3.82q.225.42.51.87l4.25 7.85a2.907 2.907 0 0 0-1.93.98 1.906 1.906 0 0 0-.3 1.86c.46 1.35 2.26 2.4 4.09 2.4h31.72c1.84 0 3.63-1.05 4.1-2.4a1.909 1.909 0 0 0-.31-1.86 2.861 2.861 0 0 0-1.93-.98l4.22-7.8c.2-.32.37-.62.53-.92a3.983 3.983 0 0 0 3.53-3.82 4.051 4.051 0 0 0-4.2-3.88zM25.99 1.44a3.415 3.415 0 1 1-3.68 3.4 3.555 3.555 0 0 1 3.68-3.4zM1.55 17.71a2.653 2.653 0 1 1 2.65 2.45 2.56 2.56 0 0 1-2.65-2.45zm42.84 14.37a.549.549 0 0 1 .07.57 2.885 2.885 0 0 1-2.61 1.41H10.13a2.885 2.885 0 0 1-2.61-1.41.57.57 0 0 1 .07-.58 1.69 1.69 0 0 1 1.29-.44h34.23a1.645 1.645 0 0 1 1.28.45zm2.18-10.32L42 30.2H9.97l-4.58-8.48c-.06-.09-.1-.17-.16-.26a4.055 4.055 0 0 0 3.05-2.87c.18.08.34.13.53.22l.83.37a6.872 6.872 0 0 0 2.77.64c3.95 0 6.32-3.96 7.94-7.42l1.52-3.21a7.476 7.476 0 0 1 .47-.89 5.438 5.438 0 0 0 3.65 1.38 5.373 5.373 0 0 0 3.91-1.65c.2.31.39.62.58.97l1.85 3.61c1.7 3.3 4.14 7.09 7.99 7.09a6.847 6.847 0 0 0 2.93-.71c.19-.09.34-.15.52-.22a4.055 4.055 0 0 0 2.98 2.69c-.06.1-.12.19-.18.3zm1.22-1.6a2.458 2.458 0 1 1 2.65-2.45 2.56 2.56 0 0 1-2.65 2.45z"/></svg>