<svg xmlns="http://www.w3.org/2000/svg" width="47" height="46.969" viewBox="0 0 47 46.969"><defs><style>.cls-1{fill:#fff;fill-rule:evenodd}</style></defs><path class="cls-1" d="M42.227 25.876l-.007-.295a.839.839 0 0 0-.839-.832H21.738V5.613a.84.84 0 0 0-.249-.6.789.789 0 0 0-.6-.242 21.106 21.106 0 1 0 21.338 21.105zm-1.686.551a19.35 19.35 0 0 1-5.078 12.535L22.925 26.427h17.616zM21.117 45.306A19.428 19.428 0 0 1 20.06 6.479v19.109a.855.855 0 0 0 .246.593L34.277 40.15a19.353 19.353 0 0 1-13.16 5.156zM25.887 0h-.228a.839.839 0 0 0-.829.839v19.976a.839.839 0 0 0 .839.839h20.48a.841.841 0 0 0 .6-.251.829.829 0 0 0 .241-.6A21.187 21.187 0 0 0 25.887 0zm.621 19.979V1.688A19.513 19.513 0 0 1 45.28 19.979H26.508z"/></svg>