<svg xmlns="http://www.w3.org/2000/svg" width="47" height="36.531" viewBox="0 0 47 36.531">
  <defs>
    <style>
      .cls-1 {
        fill: #fff;
        fill-rule: evenodd;
      }
    </style>
  </defs>
  <path class="cls-1" d="M815.682,440.558a0.839,0.839,0,0,0-1.678,0v34.861a0.834,0.834,0,0,0,.839.83h45.306a0.831,0.831,0,1,0,0-1.661H815.682v-34.03Zm4.608,28.974a0.846,0.846,0,0,0,1.187,0l4.122-4.077,9.45-9.349,0.433-.429,1.424,1.408,2.045,2.023,0.469,0.464a0.807,0.807,0,0,0,.389.2,0.857,0.857,0,0,0,.8-0.2l15.6-15.432v4.138a0.839,0.839,0,0,0,1.678,0V441.97a0.834,0.834,0,0,0-.839-0.83h-6.377a0.83,0.83,0,1,0,0,1.66h4.518l-3.023,2.991-12.15,12.02-1.75-1.731-2.187-2.164a0.87,0.87,0,0,0-1.187,0l-1.175,1.163L820.29,468.358A0.825,0.825,0,0,0,820.29,469.532Z" transform="translate(-814 -439.719)"/>
</svg>
