<svg xmlns="http://www.w3.org/2000/svg"  viewBox="0 0 95.062 110.03">
  <defs>
    <style>
      .cls-1 {
        fill: #89ad70;
        fill-rule: evenodd;
      }
    </style>
  </defs>
  <path class="cls-1" d="M187.507,6481.95a2.464,2.464,0,0,1-1.58-.57c-1.878-1.55-45.96-38.33-45.96-63.33,0-25.45,21.325-46.15,47.54-46.15s47.537,20.7,47.537,46.15c0,25-44.077,61.78-45.956,63.33a2.462,2.462,0,0,1-1.581.57h0Zm0-105.32c-23.525,0-42.665,18.58-42.665,41.42,0,20.34,34.765,51.55,42.665,58.38,7.9-6.83,42.662-38.05,42.662-58.38,0-22.84-19.139-41.42-42.662-41.42h0Zm0,62.72c-12.1,0-21.937-9.55-21.937-21.3s9.841-21.3,21.937-21.3,21.938,9.56,21.938,21.3-9.84,21.3-21.938,21.3h0Zm0-37.87a16.577,16.577,0,1,0,17.063,16.57,16.845,16.845,0,0,0-17.063-16.57h0Z" transform="translate(-139.969 -6371.91)"/>
</svg>
