<svg xmlns="http://www.w3.org/2000/svg" width="47.375" height="47.906" viewBox="0 0 47.375 47.906">
  <defs>
    <style>
      .cls-1 {
        fill: #fff;
        fill-rule: evenodd;
      }
    </style>
  </defs>
  <path class="cls-1" d="M237.325,550.422a0.755,0.755,0,0,1-.531-0.214,0.719,0.719,0,0,1-.185-0.739l2.073-6.364a0.735,0.735,0,0,1,.185-0.3l23.127-22.547a0.789,0.789,0,0,1,1.062,0l4.456,4.345a0.719,0.719,0,0,1,0,1.035l-23.127,22.546a0.764,0.764,0,0,1-.3.18l-6.529,2.02A0.771,0.771,0,0,1,237.325,550.422Zm2.732-6.7-1.579,4.848,4.974-1.539,22.468-21.9-3.4-3.311Zm23.309-14.285a0.755,0.755,0,0,1-.53-0.214l-4.457-4.345a0.718,0.718,0,0,1,0-1.034,0.765,0.765,0,0,1,1.062,0l4.456,4.344a0.719,0.719,0,0,1,0,1.035A0.759,0.759,0,0,1,263.366,529.433Zm-5.793,38.537H221.121a0.741,0.741,0,0,1-.751-0.731v-40.51a0.741,0.741,0,0,1,.751-0.732h35.237a0.732,0.732,0,1,1,0,1.463H221.871v39.047h34.952V535.4a0.751,0.751,0,0,1,1.5,0v31.844A0.741,0.741,0,0,1,257.573,567.97Z" transform="translate(-220.375 -520.063)"/>
</svg>
