<svg xmlns="http://www.w3.org/2000/svg"  viewBox="0 0 52 35.5">
  <defs>
    <style>
      .cls-1 {
        fill: #fff;
        fill-rule: evenodd;
      }
    </style>
  </defs>
  <path class="cls-1" d="M1162.79,3499.58a4.084,4.084,0,0,0-4.15,3.41c-0.35.14-.71,0.29-1.09,0.47a5.22,5.22,0,0,1-2.23.55c-2.98,0-5.09-3.35-6.59-6.27l-1.85-3.6a11.358,11.358,0,0,0-1.06-1.67,4.568,4.568,0,0,0,.41-1.88,5.252,5.252,0,0,0-10.47,0,4.475,4.475,0,0,0,.6,2.2,10.407,10.407,0,0,0-.92,1.58l-1.51,3.21c-1.32,2.81-3.44,6.55-6.52,6.55a5.112,5.112,0,0,1-2.09-.49l-0.83-.37q-0.6-.27-1.17-0.48a4.112,4.112,0,0,0-4.12-3.21,4.06,4.06,0,0,0-4.21,3.88,3.983,3.983,0,0,0,3.52,3.82q0.225,0.42.51,0.87l4.25,7.85a2.907,2.907,0,0,0-1.93.98,1.906,1.906,0,0,0-.3,1.86c0.46,1.35,2.26,2.4,4.09,2.4h31.72c1.84,0,3.63-1.05,4.1-2.4a1.909,1.909,0,0,0-.31-1.86,2.861,2.861,0,0,0-1.93-.98l4.22-7.8c0.2-.32.37-0.62,0.53-0.92a3.983,3.983,0,0,0,3.53-3.82A4.051,4.051,0,0,0,1162.79,3499.58Zm-21.8-12.39a3.415,3.415,0,1,1-3.68,3.4A3.555,3.555,0,0,1,1140.99,3487.19Zm-24.44,16.27a2.653,2.653,0,1,1,2.65,2.45A2.56,2.56,0,0,1,1116.55,3503.46Zm42.84,14.37a0.549,0.549,0,0,1,.07.57,2.885,2.885,0,0,1-2.61,1.41h-31.72a2.885,2.885,0,0,1-2.61-1.41,0.57,0.57,0,0,1,.07-0.58,1.69,1.69,0,0,1,1.29-.44h34.23A1.645,1.645,0,0,1,1159.39,3517.83Zm2.18-10.32-4.57,8.44h-32.03l-4.58-8.48c-0.06-.09-0.1-0.17-0.16-0.26a4.055,4.055,0,0,0,3.05-2.87c0.18,0.08.34,0.13,0.53,0.22l0.83,0.37a6.872,6.872,0,0,0,2.77.64c3.95,0,6.32-3.96,7.94-7.42l1.52-3.21a7.476,7.476,0,0,1,.47-0.89,5.438,5.438,0,0,0,3.65,1.38,5.373,5.373,0,0,0,3.91-1.65c0.2,0.31.39,0.62,0.58,0.97l1.85,3.61c1.7,3.3,4.14,7.09,7.99,7.09a6.847,6.847,0,0,0,2.93-.71c0.19-.09.34-0.15,0.52-0.22a4.055,4.055,0,0,0,2.98,2.69C1161.69,3507.31,1161.63,3507.4,1161.57,3507.51Zm1.22-1.6a2.458,2.458,0,1,1,2.65-2.45A2.56,2.56,0,0,1,1162.79,3505.91Z" transform="translate(-1115 -3485.75)"/>
</svg>
