<svg xmlns="http://www.w3.org/2000/svg" width="47" height="46.969" viewBox="0 0 47 46.969">
  <defs>
    <style>
      .cls-1 {
        fill: #fff;
        fill-rule: evenodd;
      }
    </style>
  </defs>
  <path class="cls-1" d="M855.227,543.876l-0.007-.295a0.839,0.839,0,0,0-.839-0.832H834.738V523.613a0.84,0.84,0,0,0-.249-0.6,0.789,0.789,0,0,0-.6-0.242A21.106,21.106,0,1,0,855.227,543.876Zm-1.686.551a19.35,19.35,0,0,1-5.078,12.535l-12.538-12.535h17.616Zm-19.424,18.879a19.428,19.428,0,0,1-1.057-38.827v19.109a0.855,0.855,0,0,0,.246.593h0l13.971,13.969A19.353,19.353,0,0,1,834.117,563.306ZM838.887,518l-0.228,0a0.839,0.839,0,0,0-.829.839v19.976a0.839,0.839,0,0,0,.839.839h20.48a0.841,0.841,0,0,0,.6-0.251,0.829,0.829,0,0,0,.241-0.6A21.187,21.187,0,0,0,838.887,518Zm0.621,19.979V519.688a19.513,19.513,0,0,1,18.772,18.291H839.508Z" transform="translate(-813 -518)"/>
</svg>
