<svg xmlns="http://www.w3.org/2000/svg" width="31.625" height="44.12" viewBox="0 0 31.625 44.12">
  <defs>
    <style>
      .cls-1 {
        fill: #3d3556;
        fill-rule: evenodd;
      }
    </style>
  </defs>
  <path class="cls-1" d="M341.6,3904.1a0.871,0.871,0,0,1-.872-0.87v-42.39a0.871,0.871,0,0,1,.872-0.87h12.088c5.139,0,12.378,3.45,12.378,11.12,0,7.63-7.239,11.06-12.378,11.06h-7.555a0.87,0.87,0,1,1,0-1.74h7.555c3.47,0,10.635-2.27,10.635-9.32,0-7.08-7.165-9.38-10.635-9.38H342.466v41.52A0.871,0.871,0,0,1,341.6,3904.1Zm0-22.05h-6.276a0.87,0.87,0,1,1,0-1.74H341.6A0.87,0.87,0,1,1,341.6,3882.05Zm7.061,5.69H335.319a0.87,0.87,0,1,1,0-1.74h13.337A0.87,0.87,0,1,1,348.656,3887.74Z" transform="translate(-334.438 -3859.97)"/>
</svg>
