<?xml version="1.0" standalone="no"?>
<!DOCTYPE svg PUBLIC "-//W3C//DTD SVG 20010904//EN"
 "http://www.w3.org/TR/2001/REC-SVG-20010904/DTD/svg10.dtd">
<svg version="1.0" xmlns="http://www.w3.org/2000/svg"
 width="487.000000pt" height="129.000000pt" viewBox="0 0 487.000000 129.000000"
 preserveAspectRatio="xMidYMid meet">
<metadata>
Created by potrace 1.13, written by Peter Selinger 2001-2015
</metadata>
<g transform="translate(0.000000,129.000000) scale(0.100000,-0.100000)"
fill="#000000" stroke="none">
<path d="M1846 1274 c-13 -13 -16 -44 -16 -185 l0 -169 -42 30 c-126 91 -303
77 -414 -34 -151 -151 -107 -401 89 -503 45 -24 64 -28 137 -28 79 0 90 3 150
36 70 38 127 102 150 167 10 27 15 124 17 357 4 296 3 320 -13 332 -23 17 -39
16 -58 -3z m-127 -381 c27 -17 58 -48 76 -78 26 -42 30 -58 30 -119 0 -59 -5
-79 -27 -117 -90 -153 -318 -148 -400 10 -108 206 124 426 321 304z"/>
<path d="M2022 1278 c-17 -17 -17 -1249 0 -1266 19 -19 45 -14 62 10 14 20 16
96 16 623 0 527 -2 603 -16 623 -17 24 -43 29 -62 10z"/>
<path d="M2201 1276 c-9 -10 -11 -105 -9 -353 l3 -338 27 -51 c35 -66 98 -120
162 -139 64 -19 101 -19 121 1 33 34 0 67 -78 79 -50 8 -123 74 -138 124 -5
20 -9 81 -7 136 l3 100 112 3 c111 3 113 3 119 27 12 47 -8 55 -127 55 l-109
0 0 163 c0 131 -3 167 -16 185 -17 25 -46 29 -63 8z"/>
<path d="M12 1018 c-6 -6 -12 -18 -12 -25 0 -10 188 -453 240 -565 15 -31 45
-45 64 -29 7 6 71 142 141 302 l128 290 -20 21 c-41 41 -54 23 -164 -229 -101
-230 -103 -235 -116 -207 -8 16 -55 123 -107 239 -81 184 -96 210 -117 213
-13 2 -30 -3 -37 -10z"/>
<path d="M793 991 c-77 -26 -136 -80 -175 -159 -29 -58 -33 -77 -33 -142 1
-96 29 -162 96 -225 71 -66 127 -89 219 -89 92 0 159 27 216 85 31 32 36 43
28 56 -24 38 -41 39 -83 5 -103 -82 -234 -80 -324 6 -34 32 -70 99 -62 112 4
6 107 10 258 10 139 0 258 4 266 9 9 6 13 26 13 57 -3 106 -105 243 -209 278
-61 21 -145 20 -210 -3z m191 -75 c48 -20 100 -70 121 -115 32 -72 33 -72
-212 -69 l-218 3 2 30 c6 81 118 165 220 165 30 0 68 -6 87 -14z"/>
<path d="M2830 997 c-227 -64 -308 -341 -151 -519 18 -21 60 -51 93 -68 105
-52 244 -39 331 31 l37 30 0 -35 c0 -38 21 -66 49 -66 39 0 43 21 39 217 -3
166 -6 193 -25 234 -61 135 -234 216 -373 176z m191 -105 c100 -52 146 -178
104 -287 -21 -55 -93 -121 -149 -136 -98 -26 -206 16 -259 103 -124 200 95
429 304 320z"/>
<path d="M2207 263 c-4 -3 -7 -61 -7 -129 0 -121 0 -122 25 -128 45 -11 108
10 144 50 31 34 33 40 29 90 -5 60 -25 89 -75 110 -34 15 -105 19 -116 7z
m139 -47 c28 -28 34 -41 34 -78 0 -24 -7 -54 -16 -67 -20 -28 -72 -51 -114
-51 l-30 0 0 115 0 115 46 0 c39 0 51 -5 80 -34z"/>
<path d="M3075 158 c-26 -62 -52 -121 -57 -130 -6 -12 -5 -18 2 -18 6 0 18 16
26 35 14 35 14 35 79 35 65 0 65 0 79 -35 8 -19 20 -35 25 -35 6 0 -6 37 -25
82 -20 46 -43 101 -51 123 -9 22 -19 44 -23 48 -4 5 -29 -42 -55 -105z"/>
<path d="M3550 145 c-29 -69 -50 -129 -47 -132 4 -3 14 11 23 31 18 36 18 36
81 36 62 0 63 0 77 -35 8 -19 20 -35 25 -35 6 0 -6 37 -25 82 -20 46 -43 101
-51 123 -9 22 -19 44 -23 48 -4 4 -31 -49 -60 -118z"/>
</g>
</svg>
